<svg width="36" height="30" viewBox="0 0 36 30" fill="none" xmlns="http://www.w3.org/2000/svg">
<path d="M29.5022 23.827C26.3593 27.3706 21.6019 29.4355 16.5278 29.4355C7.40005 29.4355 0 22.8455 0 14.7178C0 6.58998 7.40163 0 16.5278 0C24.1472 0 30.7834 4.64469 32.585 11.2139L34.6025 11.2194C35.6599 11.218 36.3515 12.2463 35.8127 13.0806C34.6612 14.8566 33.5143 16.6327 32.3627 18.4087C31.8409 19.239 30.481 19.2651 29.933 18.4238C28.7999 16.6767 27.6731 14.9323 26.54 13.1851C25.8917 12.3727 26.5354 11.2139 27.6823 11.2139H29.6814C27.9509 6.05232 22.6022 2.49639 16.5295 2.49639C8.95008 2.49639 2.8063 7.96734 2.8063 14.7178C2.8063 21.4672 8.95008 26.9392 16.5295 26.9392C20.7469 26.9392 24.6986 25.2361 27.3135 22.2889L29.5039 23.8298L29.5022 23.827ZM9.93945 17.2975L13.1317 17.0157C13.496 18.811 14.5627 19.7787 16.662 19.7787C18.0405 19.7787 19.8358 19.2811 19.8358 17.7924C19.8358 16.2432 17.0325 15.9587 15.7173 15.6659C13.1301 15.0872 10.5507 14.0769 10.5507 11.3154C10.5507 8.85209 12.7365 7.66022 15.1494 7.35512V5.73583H17.9095V7.36061C20.5229 7.68364 22.5358 8.95101 22.6437 11.6921L19.3603 11.7925C19.0686 10.2337 18.1362 9.69484 16.4088 9.69484C15.4086 9.69484 13.6765 9.96151 13.6765 11.1203C13.6765 12.3684 16.1495 12.7547 17.1636 12.9691C20.3127 13.6289 23.1189 14.4592 23.1189 17.7746C23.1189 20.6352 20.646 21.8887 17.9074 22.1734V23.6978H15.1473V22.1541C12.2036 21.7995 10.3372 20.2943 9.93889 17.2976L9.93945 17.2975Z" fill="black"/>
</svg>
