<svg width="38" height="34" viewBox="0 0 38 34" fill="none" xmlns="http://www.w3.org/2000/svg">
<path d="M32.4534 9.2729H21.6362V2.31822C21.6362 1.03958 20.5967 0 19.3181 0H2.3181C1.03953 0 0 1.03958 0 2.31822V31.6818C0 32.9604 1.03953 34 2.3181 34H19.3181C20.5967 34 21.6362 32.9604 21.6362 31.6818V24.7271H32.4534C33.3064 24.7271 33.9982 24.0334 33.9982 23.1822L34 10.8196C34 9.9666 33.3064 9.27294 32.4534 9.27294L32.4534 9.2729ZM32.4534 12.3645H12.3638V10.8196H32.4534V12.3645ZM2.3181 1.54672H19.3181C19.7437 1.54672 20.0914 1.89264 20.0914 2.32008V3.09344L1.54664 3.09163V2.31827C1.54664 1.89266 1.89254 1.54672 2.31815 1.54672L2.3181 1.54672ZM19.3181 32.4551H2.3181C1.89251 32.4551 1.54478 32.1092 1.54478 31.6818V30.1369H20.0896V31.6818C20.0914 32.1092 19.7437 32.4551 19.3181 32.4551H19.3181ZM20.0914 28.592H1.54664V4.63645H20.0914V9.2729H12.3638C11.5109 9.2729 10.819 9.96656 10.819 10.8178V23.1822C10.819 24.0334 11.5127 24.7271 12.3638 24.7271H20.0914V28.592ZM12.3638 23.1822V13.9093H32.4534V23.1822H12.3638Z" fill="white"/>
<path d="M34.959 21.3208H37.5502V23.0476H34.959V21.3208Z" fill="white"/>
<path d="M30.6406 21.3208H33.2318V23.0476H30.6406V21.3208Z" fill="white"/>
</svg>
