<svg width="57" height="35" viewBox="0 0 57 35" fill="none" xmlns="http://www.w3.org/2000/svg">
<path d="M51.9444 33H5.44444C3.54191 33 2 31.4581 2 29.5556V5.44444C2 3.54191 3.54191 2 5.44444 2H51.9444C53.847 2 55.3889 3.54191 55.3889 5.44444V29.5556C55.3889 31.4581 53.847 33 51.9444 33Z" stroke="white" stroke-width="2.5" stroke-miterlimit="10" stroke-linecap="round" stroke-linejoin="round"/>
<path d="M2 23.5278H55.3889V28.6945H2V23.5278Z" stroke="white" stroke-width="2.5" stroke-miterlimit="10" stroke-linecap="round" stroke-linejoin="round"/>
<path d="M11.4731 9.74989C11.4731 10.9554 11.9736 12.0399 12.7648 12.8337C11.9898 13.5899 10.9215 14.0554 9.75087 14.0554C7.37472 14.0554 5.44531 12.126 5.44531 9.74989C5.44531 7.37374 7.37472 5.44434 9.75087 5.44434C10.9215 5.44434 11.9898 5.90987 12.7648 6.66608C11.9736 7.45992 11.4731 8.54434 11.4731 9.74989Z" stroke="white" stroke-width="2.5" stroke-miterlimit="10" stroke-linecap="round" stroke-linejoin="round"/>
<path d="M20.0838 9.74989C20.0838 12.126 18.1544 14.0554 15.7782 14.0554C14.6076 14.0554 13.5393 13.5899 12.7643 12.8337C11.9732 12.0399 11.4727 10.9554 11.4727 9.74989C11.4727 8.54434 11.9732 7.45985 12.7643 6.66608C13.5393 5.90992 14.6076 5.44434 15.7782 5.44434C18.1544 5.44434 20.0838 7.37374 20.0838 9.74989V9.74989Z" stroke="white" stroke-width="2.5" stroke-miterlimit="10" stroke-linecap="round" stroke-linejoin="round"/>
<path d="M27.834 7.16675H50.2229" stroke="white" stroke-width="2.5" stroke-miterlimit="10" stroke-linecap="round" stroke-linejoin="round"/>
<path d="M27.834 12.3333H50.2229" stroke="white" stroke-width="2.5" stroke-miterlimit="10" stroke-linecap="round" stroke-linejoin="round"/>
<path d="M27.834 17.5H50.2229" stroke="white" stroke-width="2.5" stroke-miterlimit="10" stroke-linecap="round" stroke-linejoin="round"/>
</svg>
