<svg width="33" height="25" viewBox="0 0 33 25" fill="none" xmlns="http://www.w3.org/2000/svg">
<path d="M31.821 22.7665H28.1439L26.5999 12.6353C26.3745 11.1425 25.5392 9.77264 24.2487 8.78167C22.9582 7.7895 21.3023 7.24364 19.5876 7.24364H13.412C11.6869 7.2307 10.0163 7.77142 8.71398 8.76488C7.41168 9.75704 6.56753 11.1334 6.34064 12.6354L4.85566 22.7666H1.17856C0.527391 22.7666 0 23.2297 0 23.8015C0 24.3732 0.527391 24.8363 1.17856 24.8363H31.8211C32.4722 24.8363 32.9996 24.3732 32.9996 23.8015C32.9996 23.2297 32.4722 22.7666 31.8211 22.7666L31.821 22.7665ZM7.23605 22.7665L8.73283 12.9045C9.0481 10.8348 11.0693 9.29561 13.4471 9.31349H19.6227C22.0005 9.29538 24.0217 10.8347 24.3369 12.9045L25.763 22.7665H7.23605Z" fill="black"/>
<path d="M16.5008 10.3486C15.8497 10.3486 15.3223 10.8117 15.3223 11.3835V17.5925C15.3223 18.1643 15.8497 18.6273 16.5008 18.6273C17.152 18.6273 17.6794 18.1643 17.6794 17.5925V11.3835C17.6794 11.1092 17.5556 10.8454 17.3347 10.6513C17.1137 10.4573 16.8131 10.3486 16.5008 10.3486L16.5008 10.3486Z" fill="black"/>
<path d="M17.6794 20.6968C17.6794 22.0771 15.3223 22.0771 15.3223 20.6968C15.3223 19.3166 17.6794 19.3166 17.6794 20.6968Z" fill="black"/>
<path d="M16.5008 5.17422C16.8132 5.17422 17.1137 5.06557 17.3347 4.87153C17.5556 4.6775 17.6794 4.41362 17.6794 4.13939V1.03485C17.6794 0.463082 17.152 0 16.5008 0C15.8497 0 15.3223 0.463082 15.3223 1.03485V4.13939C15.3223 4.41362 15.446 4.67751 15.667 4.87153C15.888 5.06557 16.1885 5.17422 16.5008 5.17422H16.5008Z" fill="black"/>
<path d="M7.20282 5.63953C7.40318 5.9875 7.80832 6.20739 8.25172 6.20871C8.43734 6.2113 8.61855 6.1712 8.78205 6.09488C9.35952 5.83617 9.59229 5.21657 9.30062 4.70818L8.12206 2.63848C7.80385 2.1741 7.1306 2.00333 6.58111 2.24911C6.03015 2.49359 5.78704 3.06924 6.02423 3.56984L7.20282 5.63953Z" fill="black"/>
<path d="M24.2187 6.09528C24.3822 6.1716 24.5634 6.2117 24.749 6.20911C25.1924 6.20782 25.5976 5.98791 25.7979 5.63993L26.9765 3.57025C27.1459 3.32318 27.1901 3.02696 27.0988 2.75012C27.0089 2.4733 26.7909 2.24307 26.4992 2.11369C26.206 1.98304 25.8657 1.96622 25.5578 2.06583C25.2514 2.16543 25.0038 2.37369 24.8786 2.63888L23.7001 4.70856C23.4084 5.21694 23.6411 5.83652 24.2186 6.09525L24.2187 6.09528Z" fill="black"/>
</svg>
