<svg width="36" height="42" viewBox="0 0 36 42" fill="none" xmlns="http://www.w3.org/2000/svg">
<path d="M29.4175 16.2889H23.3104C21.4987 16.2854 20.0299 14.8219 20.0176 13.0102V6.62841C20.0176 6.23967 20.3324 5.9248 20.7212 5.9248C21.1099 5.9248 21.4248 6.23967 21.4248 6.62841V13.0102C21.4371 14.0445 22.2761 14.8782 23.3104 14.8817H29.4175C29.8062 14.8817 30.1211 15.1966 30.1211 15.5853C30.1211 15.9741 29.8062 16.2889 29.4175 16.2889Z" fill="white"/>
<path d="M26.8919 41.0205H3.29989C1.4793 41.0205 0.00351239 39.5482 0 37.7276V9.16103C0.00351825 7.34044 1.47935 5.86816 3.29989 5.86816H20.7214C20.9096 5.86816 21.089 5.94556 21.2209 6.07925L29.9879 15.1133C30.1146 15.2452 30.1867 15.4229 30.185 15.6058V37.7272C30.1814 39.5442 28.7092 41.0165 26.8921 41.02L26.8919 41.0205ZM3.29989 7.24745C2.2568 7.24745 1.41072 8.09002 1.40721 9.13311V37.6997C1.41073 38.7428 2.2568 39.5853 3.29989 39.5853H26.8919C27.9332 39.5853 28.7776 38.741 28.7776 37.6997V15.8877L20.419 7.2756L3.29989 7.24745Z" fill="white"/>
<path d="M23.7052 22.6213H6.48095C6.09221 22.6213 5.77734 22.3065 5.77734 21.9177C5.77734 21.529 6.09221 21.2141 6.48095 21.2141H23.7052C24.0939 21.2141 24.4088 21.529 24.4088 21.9177C24.4088 22.3065 24.0939 22.6213 23.7052 22.6213Z" fill="white"/>
<path d="M23.7052 28.074H6.48095C6.09221 28.074 5.77734 27.7591 5.77734 27.3704C5.77734 26.9816 6.09221 26.6667 6.48095 26.6667H23.7052C24.0939 26.6667 24.4088 26.9816 24.4088 27.3704C24.4088 27.7591 24.0939 28.074 23.7052 28.074Z" fill="white"/>
<path d="M23.7052 33.5693H6.48095C6.09221 33.5693 5.77734 33.2545 5.77734 32.8657C5.77734 32.477 6.09221 32.1621 6.48095 32.1621H23.7052C24.0939 32.1621 24.4088 32.477 24.4088 32.8657C24.4088 33.2545 24.0939 33.5693 23.7052 33.5693Z" fill="white"/>
<path d="M35.0889 10.442H28.9323C27.1152 10.435 25.6465 8.95915 25.6465 7.14212V0.753165C25.6465 0.364424 25.9613 0.0495605 26.3501 0.0495605C26.7388 0.0495605 27.0537 0.364424 27.0537 0.753165V7.14212C27.0537 8.18345 27.898 9.02777 28.9394 9.02777H35.0959C35.4847 9.02777 35.7995 9.34264 35.7995 9.73138C35.7995 10.1201 35.4847 10.435 35.0959 10.435L35.0889 10.442Z" fill="white"/>
<path d="M32.5133 35.1525H29.4807C29.092 35.1525 28.7771 34.8377 28.7771 34.4489C28.7771 34.0602 29.092 33.7453 29.4807 33.7453H32.5133C33.5564 33.7453 34.4025 32.9028 34.406 31.8597V10.0477L26.0474 1.40724H8.92177C7.88044 1.40724 7.03611 2.25156 7.03611 3.2929V6.57167C7.03611 6.96041 6.72125 7.27527 6.33251 7.27527C5.94377 7.27527 5.62891 6.96041 5.62891 6.57167V3.2929C5.63242 1.47582 7.1047 0.00354173 8.92177 2.9342e-05H26.35C26.54 -0.00172956 26.7229 0.0756674 26.8566 0.211111L35.6164 9.25237C35.7431 9.38429 35.8152 9.56195 35.8134 9.74491V31.859C35.8099 33.6796 34.3341 35.1519 32.5135 35.1519L32.5133 35.1525Z" fill="white"/>
</svg>
