<svg width="29" height="30" viewBox="0 0 29 30" fill="none" xmlns="http://www.w3.org/2000/svg">
<path d="M6.40615 2.66555H6.68436V1.59156C6.68436 0.716522 7.40088 0 8.27592 0C9.15096 0 9.86749 0.716522 9.86749 1.59156V2.66555H18.2232V1.59156C18.2232 0.716522 18.9397 0 19.8148 0C20.6898 0 21.4063 0.716522 21.4063 1.59156V2.66555H21.6845C25.1863 2.66555 28.0508 5.53004 28.0508 9.0318V23.634C28.0508 27.1357 25.1863 30.0002 21.6845 30.0002H6.36574C2.86398 30.0002 -0.000516891 27.1357 -0.000516891 23.634V9.0318C0.0398941 5.53004 2.86398 2.66555 6.40632 2.66555H6.40615ZM21.6844 5.84868H21.4061V6.92266C21.4061 7.7977 20.6896 8.51423 19.8146 8.51423C18.9395 8.51423 18.223 7.7977 18.223 6.92266V5.84868H9.86731V6.92266C9.86731 7.7977 9.15079 8.51423 8.27575 8.51423C7.40071 8.51423 6.68418 7.7977 6.68418 6.92266V5.84868H6.40597C4.65589 5.84868 3.22285 7.28172 3.22285 9.0318V10.2255H24.8673V9.0318C24.8673 7.28172 23.4358 5.84868 21.6842 5.84868H21.6844ZM6.40615 26.8171H21.6844C23.4344 26.8171 24.8675 25.3841 24.8675 23.634V13.4086H3.18243V23.634C3.22284 25.3856 4.65431 26.8171 6.40598 26.8171H6.40615Z" fill="black"/>
<path d="M7.32225 20.5706H20.7698C21.6448 20.5706 22.3613 21.2871 22.3613 22.1621C22.3613 23.0372 21.6448 23.7537 20.7698 23.7537H7.36124C6.4862 23.7537 5.76968 23.0372 5.76968 22.1621C5.76968 21.2871 6.44578 20.5706 7.32237 20.5706H7.32225Z" fill="black"/>
<path d="M18.5022 19.2573H9.54965C8.6746 19.2573 7.95808 18.5408 7.95808 17.6658C7.95808 16.7907 8.6746 16.0742 9.54965 16.0742H18.5022C19.3772 16.0742 20.0938 16.7907 20.0938 17.6658C20.0938 18.5408 19.4177 19.2573 18.5022 19.2573Z" fill="black"/>
</svg>
