<svg width="39" height="39" viewBox="0 0 39 39" fill="none" xmlns="http://www.w3.org/2000/svg">
<rect y="0.169922" width="38.3129" height="38.3129" rx="19.1565" fill="#9B00FE"/>
<rect width="23.9456" height="23.9456" transform="translate(7.18359 7.35352)" fill="#9B00FE"/>
<path d="M18.159 16.3329H22.1499C22.4145 16.3329 22.6683 16.2278 22.8554 16.0407C23.0425 15.8536 23.1476 15.5998 23.1476 15.3352C23.1476 15.0706 23.0425 14.8168 22.8554 14.6297C22.6683 14.4426 22.4145 14.3375 22.1499 14.3375H20.1544V13.3397C20.1544 13.0751 20.0493 12.8213 19.8622 12.6342C19.6751 12.4471 19.4213 12.342 19.1567 12.342C18.8921 12.342 18.6383 12.4471 18.4512 12.6342C18.2641 12.8213 18.159 13.0751 18.159 13.3397V14.3375C17.3651 14.3375 16.6038 14.6528 16.0425 15.2142C15.4811 15.7755 15.1658 16.5368 15.1658 17.3307C15.1658 18.1245 15.4811 18.8858 16.0425 19.4472C16.6038 20.0085 17.3651 20.3239 18.159 20.3239H20.1544C20.419 20.3239 20.6728 20.429 20.8599 20.6161C21.047 20.8032 21.1522 21.057 21.1522 21.3216C21.1522 21.5862 21.047 21.84 20.8599 22.0271C20.6728 22.2142 20.419 22.3193 20.1544 22.3193H16.1635C15.8989 22.3193 15.6451 22.4244 15.458 22.6116C15.2709 22.7987 15.1658 23.0524 15.1658 23.3171C15.1658 23.5817 15.2709 23.8355 15.458 24.0226C15.6451 24.2097 15.8989 24.3148 16.1635 24.3148H18.159V25.3125C18.159 25.5771 18.2641 25.8309 18.4512 26.018C18.6383 26.2051 18.8921 26.3103 19.1567 26.3103C19.4213 26.3103 19.6751 26.2051 19.8622 26.018C20.0493 25.8309 20.1544 25.5771 20.1544 25.3125V24.3148C20.9483 24.3148 21.7096 23.9994 22.2709 23.4381C22.8323 22.8768 23.1476 22.1154 23.1476 21.3216C23.1476 20.5277 22.8323 19.7664 22.2709 19.2051C21.7096 18.6438 20.9483 18.3284 20.1544 18.3284H18.159C17.8944 18.3284 17.6406 18.2233 17.4535 18.0362C17.2664 17.8491 17.1612 17.5953 17.1612 17.3307C17.1612 17.0661 17.2664 16.8123 17.4535 16.6252C17.6406 16.4381 17.8944 16.3329 18.159 16.3329ZM19.1567 8.35107C16.986 8.35107 14.8641 8.99475 13.0593 10.2007C11.2544 11.4067 9.84775 13.1207 9.01707 15.1262C8.1864 17.1316 7.96905 19.3383 8.39253 21.4673C8.816 23.5962 9.86128 25.5518 11.3962 27.0867C12.9311 28.6216 14.8866 29.6668 17.0156 30.0903C19.1445 30.5138 21.3512 30.2964 23.3567 29.4658C25.3621 28.6351 27.0762 27.2284 28.2821 25.4235C29.4881 23.6187 30.1318 21.4968 30.1318 19.3261C30.1318 16.4154 28.9755 13.6238 26.9172 11.5656C24.859 9.50737 22.0675 8.35107 19.1567 8.35107ZM19.1567 28.3057C17.3807 28.3057 15.6446 27.7791 14.1679 26.7924C12.6912 25.8057 11.5403 24.4033 10.8606 22.7625C10.181 21.1217 10.0032 19.3162 10.3497 17.5743C10.6961 15.8324 11.5514 14.2324 12.8072 12.9766C14.063 11.7208 15.663 10.8656 17.4049 10.5191C19.1467 10.1726 20.9522 10.3504 22.593 11.0301C24.2338 11.7097 25.6363 12.8607 26.623 14.3373C27.6097 15.814 28.1363 17.5501 28.1363 19.3261C28.1363 21.7077 27.1902 23.9917 25.5062 25.6757C23.8222 27.3597 21.5382 28.3057 19.1567 28.3057Z" fill="white"/>
</svg>
