<svg width="39" height="39" viewBox="0 0 39 39" fill="none" xmlns="http://www.w3.org/2000/svg">
<rect width="38.3129" height="38.3129" rx="19.1565" fill="#2BA7FA"/>
<path d="M18.159 16.163H22.1499C22.4145 16.163 22.6683 16.0579 22.8554 15.8708C23.0425 15.6837 23.1476 15.4299 23.1476 15.1653C23.1476 14.9007 23.0425 14.6469 22.8554 14.4598C22.6683 14.2727 22.4145 14.1675 22.1499 14.1675H20.1544V13.1698C20.1544 12.9052 20.0493 12.6514 19.8622 12.4643C19.6751 12.2772 19.4213 12.1721 19.1567 12.1721C18.8921 12.1721 18.6383 12.2772 18.4512 12.4643C18.2641 12.6514 18.159 12.9052 18.159 13.1698V14.1675C17.3651 14.1675 16.6038 14.4829 16.0425 15.0442C15.4811 15.6056 15.1658 16.3669 15.1658 17.1607C15.1658 17.9546 15.4811 18.7159 16.0425 19.2773C16.6038 19.8386 17.3651 20.1539 18.159 20.1539H20.1544C20.419 20.1539 20.6728 20.2591 20.8599 20.4462C21.047 20.6333 21.1522 20.8871 21.1522 21.1517C21.1522 21.4163 21.047 21.6701 20.8599 21.8572C20.6728 22.0443 20.419 22.1494 20.1544 22.1494H16.1635C15.8989 22.1494 15.6451 22.2545 15.458 22.4416C15.2709 22.6287 15.1658 22.8825 15.1658 23.1471C15.1658 23.4118 15.2709 23.6655 15.458 23.8526C15.6451 24.0398 15.8989 24.1449 16.1635 24.1449H18.159V25.1426C18.159 25.4072 18.2641 25.661 18.4512 25.8481C18.6383 26.0352 18.8921 26.1403 19.1567 26.1403C19.4213 26.1403 19.6751 26.0352 19.8622 25.8481C20.0493 25.661 20.1544 25.4072 20.1544 25.1426V24.1449C20.9483 24.1449 21.7096 23.8295 22.2709 23.2682C22.8323 22.7069 23.1476 21.9455 23.1476 21.1517C23.1476 20.3578 22.8323 19.5965 22.2709 19.0352C21.7096 18.4738 20.9483 18.1585 20.1544 18.1585H18.159C17.8944 18.1585 17.6406 18.0534 17.4535 17.8662C17.2664 17.6791 17.1612 17.4254 17.1612 17.1607C17.1612 16.8961 17.2664 16.6424 17.4535 16.4552C17.6406 16.2681 17.8944 16.163 18.159 16.163ZM19.1567 8.18115C16.986 8.18115 14.8641 8.82483 13.0593 10.0308C11.2544 11.2367 9.84775 12.9508 9.01707 14.9562C8.1864 16.9617 7.96905 19.1684 8.39253 21.2973C8.816 23.4263 9.86128 25.3819 11.3962 26.9167C12.9311 28.4516 14.8866 29.4969 17.0156 29.9204C19.1445 30.3439 21.3512 30.1265 23.3567 29.2958C25.3621 28.4652 27.0762 27.0585 28.2821 25.2536C29.4881 23.4488 30.1318 21.3269 30.1318 19.1562C30.1318 16.2454 28.9755 13.4539 26.9172 11.3957C24.859 9.33745 22.0675 8.18115 19.1567 8.18115ZM19.1567 28.1358C17.3807 28.1358 15.6446 27.6092 14.1679 26.6225C12.6912 25.6358 11.5403 24.2334 10.8606 22.5925C10.181 20.9517 10.0032 19.1462 10.3497 17.4044C10.6961 15.6625 11.5514 14.0625 12.8072 12.8067C14.063 11.5509 15.663 10.6956 17.4049 10.3492C19.1467 10.0027 20.9522 10.1805 22.593 10.8601C24.2338 11.5398 25.6363 12.6907 26.623 14.1674C27.6097 15.6441 28.1363 17.3802 28.1363 19.1562C28.1363 21.5377 27.1902 23.8217 25.5062 25.5057C23.8222 27.1897 21.5382 28.1358 19.1567 28.1358Z" fill="white"/>
</svg>
