<svg width="25" height="25" viewBox="0 0 25 25" fill="none" xmlns="http://www.w3.org/2000/svg">
<path d="M11.159 9.16301H15.1499C15.4145 9.16301 15.6683 9.05789 15.8554 8.87078C16.0425 8.68367 16.1476 8.42989 16.1476 8.16528C16.1476 7.90066 16.0425 7.64689 15.8554 7.45977C15.6683 7.27266 15.4145 7.16755 15.1499 7.16755H13.1544V6.16981C13.1544 5.9052 13.0493 5.65142 12.8622 5.46431C12.6751 5.2772 12.4213 5.17208 12.1567 5.17208C11.8921 5.17208 11.6383 5.2772 11.4512 5.46431C11.2641 5.65142 11.159 5.9052 11.159 6.16981V7.16755C10.3651 7.16755 9.60379 7.4829 9.04246 8.04423C8.48113 8.60557 8.16577 9.3669 8.16577 10.1607C8.16577 10.9546 8.48113 11.7159 9.04246 12.2773C9.60379 12.8386 10.3651 13.1539 11.159 13.1539H13.1544C13.419 13.1539 13.6728 13.2591 13.8599 13.4462C14.047 13.6333 14.1522 13.8871 14.1522 14.1517C14.1522 14.4163 14.047 14.6701 13.8599 14.8572C13.6728 15.0443 13.419 15.1494 13.1544 15.1494H9.1635C8.89889 15.1494 8.64511 15.2545 8.458 15.4416C8.27089 15.6287 8.16577 15.8825 8.16577 16.1471C8.16577 16.4118 8.27089 16.6655 8.458 16.8526C8.64511 17.0398 8.89889 17.1449 9.1635 17.1449H11.159V18.1426C11.159 18.4072 11.2641 18.661 11.4512 18.8481C11.6383 19.0352 11.8921 19.1403 12.1567 19.1403C12.4213 19.1403 12.6751 19.0352 12.8622 18.8481C13.0493 18.661 13.1544 18.4072 13.1544 18.1426V17.1449C13.9483 17.1449 14.7096 16.8295 15.2709 16.2682C15.8323 15.7068 16.1476 14.9455 16.1476 14.1517C16.1476 13.3578 15.8323 12.5965 15.2709 12.0352C14.7096 11.4738 13.9483 11.1585 13.1544 11.1585H11.159C10.8944 11.1585 10.6406 11.0534 10.4535 10.8662C10.2664 10.6791 10.1612 10.4254 10.1612 10.1607C10.1612 9.89613 10.2664 9.64235 10.4535 9.45524C10.6406 9.26813 10.8944 9.16301 11.159 9.16301ZM12.1567 1.18115C9.98604 1.18115 7.86413 1.82483 6.05929 3.03078C4.25445 4.23674 2.84775 5.95081 2.01707 7.95623C1.1864 9.96166 0.969053 12.1684 1.39253 14.2973C1.816 16.4263 2.86128 18.3819 4.39617 19.9167C5.93105 21.4516 7.88662 22.4969 10.0156 22.9204C12.1445 23.3439 14.3512 23.1265 16.3567 22.2958C18.3621 21.4652 20.0762 20.0585 21.2821 18.2536C22.4881 16.4488 23.1318 14.3269 23.1318 12.1562C23.1318 9.24544 21.9755 6.45389 19.9172 4.39567C17.859 2.33745 15.0675 1.18115 12.1567 1.18115ZM12.1567 21.1358C10.3807 21.1358 8.64459 20.6092 7.16791 19.6225C5.69122 18.6358 4.54029 17.2334 3.86064 15.5925C3.181 13.9517 3.00317 12.1462 3.34965 10.4044C3.69613 8.66251 4.55135 7.0625 5.80717 5.80668C7.06299 4.55086 8.663 3.69564 10.4049 3.34916C12.1467 3.00268 13.9522 3.1805 15.593 3.86015C17.2338 4.53979 18.6363 5.69073 19.623 7.16741C20.6097 8.6441 21.1363 10.3802 21.1363 12.1562C21.1363 14.5377 20.1902 16.8217 18.5062 18.5057C16.8222 20.1897 14.5382 21.1358 12.1567 21.1358Z" fill="white"/>
</svg>
