<svg width="32" height="38" viewBox="0 0 32 38" fill="none" xmlns="http://www.w3.org/2000/svg">
<path d="M28.4558 30.5924H2.17614C0.976767 30.5924 0 29.6156 0 28.4162C0 26.9422 0.642741 25.5484 1.76345 24.5926C2.50713 23.9573 2.93463 23.031 2.93463 22.0513V12.3821C2.93463 5.55528 8.48917 0.000732422 15.316 0.000732422C15.7821 0.000732422 16.1606 0.379252 16.1606 0.845371C16.1606 1.31149 15.7821 1.69001 15.316 1.69001C9.41981 1.69001 4.62224 6.48606 4.62224 12.3822V22.05C4.62224 23.5225 3.9795 24.9178 2.85878 25.8751C2.11511 26.5104 1.68761 27.4367 1.68761 28.4164C1.68761 28.6851 1.90581 28.9032 2.17447 28.9032H28.4541C28.7228 28.9032 28.941 28.685 28.941 28.4164C28.941 27.4382 28.5135 26.5119 27.7698 25.8751C26.6491 24.9177 26.0064 23.5238 26.0064 22.05L26.0093 17.4245C26.0093 16.9584 26.3879 16.5799 26.854 16.5799C27.3201 16.5799 27.6986 16.9584 27.6986 17.4245V22.05C27.6986 23.0282 28.1261 23.9544 28.8698 24.5912C29.9905 25.5487 30.6333 26.9425 30.6333 28.4149C30.6318 29.6158 29.6565 30.5925 28.4556 30.5925L28.4558 30.5924Z" fill="black"/>
<path d="M23.3394 15.6904C19.0138 15.6904 15.4941 12.1709 15.4941 7.84522C15.4941 3.51961 19.0136 0 23.3394 0C27.665 0 31.1846 3.5195 31.1846 7.84522C31.1846 12.1723 27.6651 15.6904 23.3394 15.6904ZM23.3394 1.68951C19.9445 1.68951 17.1836 4.45196 17.1836 7.84522C17.1836 11.24 19.9461 14.0009 23.3394 14.0009C26.7342 14.0009 29.4951 11.2385 29.4951 7.84522C29.4951 4.45188 26.7341 1.68951 23.3394 1.68951Z" fill="#FF0067"/>
<path d="M15.3151 38.0008C12.3211 38.0008 9.88672 35.5649 9.88672 32.5724C9.88672 32.1063 10.2652 31.7278 10.7314 31.7278C11.1975 31.7278 11.576 32.1063 11.576 32.5724C11.576 34.6357 13.2534 36.3131 15.3167 36.3131C17.38 36.3131 19.0574 34.6357 19.0574 32.5724C19.0574 32.1063 19.4359 31.7278 19.902 31.7278C20.3682 31.7278 20.7467 32.1063 20.7467 32.5724C20.7452 35.565 18.3093 38.0008 15.3153 38.0008H15.3151Z" fill="black"/>
</svg>
