<svg width="30" height="20" viewBox="0 0 30 20" fill="none" xmlns="http://www.w3.org/2000/svg">
<path d="M9.54545 0C4.2822 0 0 4.3743 0 9.75C0 15.1284 4.28254 19.5 9.54545 19.5H20.4545C25.7178 19.5 30 15.1284 30 9.75C30 4.37397 25.7175 0 20.4545 0H9.54545ZM27.2731 9.75C27.2731 13.5914 24.214 16.7146 20.4545 16.7146H9.54545C5.78599 16.7146 2.72694 13.5914 2.72694 9.75C2.72694 5.91133 5.78596 2.78538 9.54545 2.78538H20.4545C24.214 2.78538 27.2731 5.91126 27.2731 9.75Z" fill="#333333"/>
<path d="M13.5 9.75C13.5 12.2363 11.653 14.25 9.37433 14.25C7.09691 14.25 5.25 12.2361 5.25 9.75C5.25 7.26386 7.09704 5.25 9.37433 5.25C11.6531 5.25 13.5 7.26386 13.5 9.75Z" fill="#333333"/>
</svg>
